<?xml version="1.0" encoding="utf-8"?>
<!-- Generator: Adobe Illustrator 27.5.0, SVG Export Plug-In . SVG Version: 6.00 Build 0)  -->
<svg version="1.1" id="Layer_1" xmlns="http://www.w3.org/2000/svg" xmlns:xlink="http://www.w3.org/1999/xlink" x="0px" y="0px"
	 viewBox="0 0 4000 4000" style="enable-background:new 0 0 4000 4000;" xml:space="preserve">
<g>
	<g>
		<rect style="fill:#DAD9FF;" width="4000" height="4000"/>
	</g>
	<g>
		<g>
			<g>
				<g>
					<path style="fill:#F9A528;" d="M1267.728,2927.408l-95.195,234.475c0,0-144.874,27.262-252.386-84.133
						c-140.287-145.354-135.693-323.083-73.641-335.569C965.351,2718.266,1022.03,2970.285,1267.728,2927.408z"/>
				</g>
				<g style="opacity:0.6;">
					<path style="fill:#FFFFFF;" d="M833.722,2796.264c117.237-23.591,174.112,221.133,411.489,186.6l22.515-55.457
						c-245.698,42.877-302.377-209.142-421.22-185.227c-24.011,4.831-39.352,34.46-41.095,77.319
						C812.434,2806.795,822.06,2798.61,833.722,2796.264z"/>
				</g>
				<g style="opacity:0.2;">
					<path style="fill:#102770;" d="M969.59,2999.699c-83.65-84.15-118.111-178.567-120.272-246.086
						c-54.18,25.703-52.407,193.961,81.59,332.798c107.512,111.396,252.386,84.134,252.386,84.134l33.737-83.098
						C1177.902,3090.808,1061.175,3091.829,969.59,2999.699z"/>
				</g>
				<g>
					<path style="fill:#102770;" d="M1131.526,3192.7c-55.947,0-152.351-13.774-231.375-95.654
						c-107.288-111.162-139.211-246.953-115.295-323.643c10.117-32.446,30.066-53.208,56.169-58.462
						c63.381-12.773,109.307,31.626,157.925,78.613c62.669,60.571,133.696,129.209,263.999,106.479
						c9.941-1.743,20.059,2.061,26.404,9.922c6.343,7.861,7.92,18.545,4.121,27.905l-95.195,234.478
						c-3.557,8.755-11.321,15.107-20.608,16.855C1175.572,3189.59,1158.113,3192.7,1131.526,3192.7z M862.071,2768.408
						c-3.34,0-6.692,0.332-10.083,1.016c-4.976,1.001-10.503,9.058-14.077,20.522c-14.817,47.51-0.161,162.417,102.229,268.506
						c77.612,80.41,176.008,80.977,212.773,77.891l71.638-176.455c-128.787,4.507-206.099-70.195-264.221-126.372
						C919.392,2793.955,891.326,2768.408,862.071,2768.408z"/>
				</g>
			</g>
			<g>
				<path style="fill:#F9A528;" d="M3091.796,1661.145c0,0.093,0,0.093,0,0.185c-18.247,73.265-50.851,144.03-102.442,207.199
					c-0.463,0.464-0.833,1.02-1.296,1.482c-24.546,30.011-53.537,58.261-87.252,84.288c0,0,0,126.341-70.58,214.61
					c-18.618,23.527-42.329,44.275-72.34,59.28v732.38c0,0,202.476,17.876,202.476,148.846c0,1.668,0,3.242-0.092,4.908
					c-2.316,127.636-96.7,185.619-214.333,185.619H1337.402c-145.513,0-258.606-126.061-243.601-270.74
					c1.667-15.56,3.612-31.584,6.02-47.793c20.192-137.548,70.395-294.545,184.693-417.365
					c56.964-61.133,129.766-113.743,222.669-151.163c0.185-0.093,0.278-0.093,0.278-0.093s-11.393-5.927-27.509-19.821
					c-30.937-26.77-79.101-82.806-96.792-182.47c-5.002-28.157-7.595-59.927-6.669-95.402c0,0-14.264-38.07-32.418-101.239
					c-53.629-186.823-141.159-592.887,6.762-878.632c48.072-92.902,120.967-173.021,228.041-228.874
					c241.008-125.784,601.408-148.94,714.595-65.579c0,0,213.221-86.141,291.21,89.938c11.301,25.657,19.822,56.872,24.36,94.663
					l0.093-0.093c0.093,0,0.186-0.093,0.37-0.093c0.371-0.093,0.741-0.278,1.39-0.555c1.019-0.371,2.408-0.835,4.168-1.484
					c0.926-0.277,1.945-0.648,3.057-1.11c3.427-1.205,7.687-2.686,12.781-4.353c1.945-0.742,4.075-1.391,6.206-2.131
					c3.334-1.204,7.039-2.407,11.022-3.613c1.945-0.741,3.983-1.388,6.02-2.037c3.057-1.019,6.298-2.037,9.633-3.056
					c1.389-0.464,2.871-0.926,4.353-1.39c11.763-3.705,24.823-7.596,38.624-11.578c2.501-0.649,5.095-1.39,7.688-2.13
					c4.446-1.204,8.985-2.501,13.616-3.705c2.593-0.648,5.094-1.39,7.78-2.038c29.362-7.595,60.854-14.634,90.679-18.896
					c4.816-0.741,9.633-1.39,14.356-1.945c3.613-0.371,7.224-0.833,10.837-1.112c5.187-0.464,10.281-0.927,15.19-1.204
					c12.041-0.556,23.434-0.556,33.9,0.37c14.635,1.205,33.623,16.024,54.278,41.403c1.019,1.298,2.038,2.594,3.057,3.892
					c5.28,6.576,10.652,13.894,15.932,21.765c33.437,49.277,68.82,122.264,95.125,207.664
					C3108.283,1364.192,3127.549,1517.578,3091.796,1661.145z"/>
			</g>
			<g>
				<g>
					<path style="fill:#FF457D;" d="M2834.162,1533.704c0,0-27.957,140.131,51.593,134.783c0,0,110.707-17.75,86.741-194.322
						l-61.414-15.57l-63.324,20.606L2834.162,1533.704z"/>
				</g>
				<g>
					<path style="fill:#102770;" d="M2881.458,1689.922c-20.166,0-37.302-7.434-49.817-21.692
						c-36.453-41.519-20.315-128.867-18.354-138.691c2.297-11.531,13.496-19.021,25.041-16.711
						c11.523,2.3,19.004,13.499,16.716,25.022l0,0c-5.771,29.211-8.54,82.815,8.606,102.307c3.169,3.606,8.252,7.637,19.49,7.153
						c9.182-2.034,88.123-23.933,68.26-170.281c-1.58-11.65,6.582-22.378,18.232-23.96c11.658-1.558,22.378,6.582,23.96,18.232
						c26.452,194.912-103.154,217.996-104.468,218.206c-0.642,0.103-1.291,0.176-1.941,0.22
						C2885.25,1689.856,2883.34,1689.922,2881.458,1689.922z"/>
				</g>
			</g>
			<g>
				<path style="fill:#102770;" d="M1822.833,3028.726c-22.285,3.622-56.311,4.788-79.255,6.36
					c-13.431,0.92-26.89,2.18-40.436,3.806c-13.661,1.333-27.118,3.738-41.234,5.593c-2.722,0.556-4.377-3.32-2.062-4.875
					c44.561-31.563,108.465-53.188,163.382-47.931C1845.049,2994.8,1844.485,3026.101,1822.833,3028.726L1822.833,3028.726z"/>
			</g>
			<g style="opacity:0.6;">
				<path style="fill:#FFFFFF;" d="M2958.139,1008.516c-270.207,198.348-565.798,10.052-679.488-67.936
					c-41.903-28.744-89.012-49.399-138.854-59.292c-313.981-62.326-614.604,122.007-788.964,253.937
					c48.072-92.902,120.967-173.021,228.041-228.874c241.008-125.784,601.408-148.94,714.595-65.579
					c0,0,185.712,224.706,315.571,184.6l0.093-0.093c0.093,0,0.186-0.093,0.37-0.093c0.371-0.093,0.741-0.278,1.39-0.555
					c1.019-0.371,2.408-0.835,4.168-1.484c0.926-0.277,1.945-0.648,3.057-1.11c3.427-1.205,7.687-2.686,12.781-4.353
					c1.945-0.742,4.075-1.391,6.206-2.131c3.334-1.204,7.039-2.407,11.022-3.613c1.945-0.741,3.983-1.388,6.02-2.037
					c3.057-1.019,6.298-2.037,9.633-3.056c1.389-0.464,2.871-0.926,4.353-1.39c11.763-3.705,24.823-7.596,38.624-11.578
					c2.501-0.649,5.095-1.39,7.688-2.13c4.446-1.204,8.985-2.501,13.616-3.705c2.593-0.648,5.094-1.39,7.78-2.038
					c29.362-7.595,60.854-14.634,90.679-18.896c4.816-0.741,9.633-1.39,14.356-1.945c3.613-0.371,7.224-0.833,10.837-1.112
					c5.187-0.464,10.281-0.927,15.19-1.204c12.041-0.556,23.434-0.556,33.9,0.37c15.356,1.265,35.504,17.517,57.342,45.23
					C2958.144,1008.477,2958.142,1008.491,2958.139,1008.516z"/>
			</g>
			<g style="opacity:0.2;">
				<path style="fill:#102770;" d="M2960.27,3114.324c-2.316,127.636-96.7,185.619-214.333,185.619H1337.402
					c-145.513,0-258.606-126.061-243.601-270.74c1.667-15.56,3.612-31.584,6.02-47.793c0,0-74.681,227.299,445.337,227.299
					c433.203,0,452.561-141.066,452.561-141.066c194.511,153.014,205.163-15.005,205.163-15.005
					c117.818,228.967,519.251,89.567,519.251,89.567C2843.563,3179.625,2916.922,3152.116,2960.27,3114.324z"/>
			</g>
			<g style="opacity:0.2;">
				<path style="fill:#102770;" d="M2830.226,2168.91c-18.618,23.527-42.329,44.275-72.34,59.28v408.379l-2.419-2.92
					c-93.639-113.03-247.673-156.467-386.312-108.27c-476.455,165.638-859.081,108.377-1084.641,38.666
					c56.964-61.133,129.766-113.743,222.669-151.163c0.185-0.093,0.278-0.093,0.278-0.093s-11.393-5.927-27.509-19.821
					C1950.482,2506.155,2564.487,2282.098,2830.226,2168.91z"/>
			</g>
			<g style="opacity:0.2;">
				<path style="fill:#102770;" d="M3091.796,1661.145c0,0.093,0,0.093,0,0.185c-11.578,75.302-48.349,144.492-102.442,207.199
					c-0.463,0.464-0.833,1.02-1.296,1.482c-215.166,247.678-700.794,392.912-966.255,404.583
					c-170.706,7.503-428.109-27.787-638.643-64.096c-5.002-28.157-7.595-59.927-6.669-95.402c0,0-14.264-38.07-32.418-101.239
					c404.53,104.176,934.472,95.244,1320.542-111.149c211.375-113.001,299.607-283.922,327.13-453.593
					c27.387-168.836-5.339-336.434-36.661-444.492c-0.183-0.632-0.367-1.261-0.55-1.888c-5.113-17.521,22.724-14.753,30.869,1.58
					c29.804,59.768,59.842,133,83.794,233.628C3099.114,1363.173,3114.675,1511.464,3091.796,1661.145z"/>
			</g>
			<g>
				<path style="fill:#102770;" d="M2745.938,3327.729H1337.403c-77.18,0-151.123-32.847-202.874-90.112
					c-51.316-56.792-76.331-132.881-68.625-208.76c21.526-212.051,106.987-487.065,387.356-622.505
					c-44.187-41.499-107.417-128.701-104.666-286.626c-13.127-36.372-87.358-251.123-104.055-499.988
					c-10.632-158.499,4.646-297.522,45.41-413.208c51.794-146.992,144.68-256.277,276.072-324.817
					c221.025-115.359,505.173-142.632,727.07-70.359c19.497-6.624,64.914-19.861,116.946-19.431
					c94.233,0.71,163.408,44.81,200.049,127.534c9.053,20.554,16.133,43.56,21.162,68.706c2.39-0.811,5.056-1.668,7.981-2.561
					c2.058-0.752,4.187-1.443,6.318-2.122c2.988-0.996,6.336-2.053,9.783-3.108c1.348-0.444,2.764-0.889,4.185-1.333
					c11.445-3.606,24.29-7.456,39.536-11.858c0.247-0.071,0.496-0.139,0.745-0.205c2.224-0.574,4.526-1.235,6.831-1.892
					c0.122-0.034,0.437-0.125,0.559-0.156l4.79-1.316c2.988-0.825,6.018-1.66,9.084-2.458c1.27-0.32,2.246-0.586,3.228-0.852
					c1.655-0.447,3.32-0.893,5.054-1.311c35.056-9.072,65.708-15.452,93.25-19.387c4.853-0.747,10-1.443,15.049-2.034l3.779-0.41
					c2.72-0.303,5.44-0.6,8.162-0.81l0.205-0.019c5.308-0.476,10.518-0.938,15.547-1.221c14.677-0.681,26.987-0.537,37.92,0.432
					c28.149,2.336,59.761,28.965,93.809,79.133c58.691,86.345,130.674,254.636,140.34,444.7
					c7.622,149.819-22.913,358.435-209.28,508.767c-2.71,47.786-20.916,204.319-142.446,276.516v664.116
					c0,15.576,10.74,29.409,25.534,32.886c114.104,26.855,176.941,86.431,176.941,167.754
					C2988.15,3244.077,2895.34,3327.729,2745.938,3327.729z M1517.249,2438.784c-289.204,116.729-375.007,388.345-396.057,595.688
					c-6.208,61.157,13.174,120.068,54.573,165.884c41.23,45.63,100.146,71.797,161.638,71.797h1408.535
					c56.116,0,186.636-15.854,186.636-162.739c0-71.431-84.014-101.87-134.092-113.652c-40.261-9.473-68.384-45.244-68.384-86.987
					v-680.586c0-10.527,5.95-20.151,15.369-24.858c126.094-63.003,127.551-247.178,127.551-249.031
					c0-8.613,3.997-16.741,10.816-22.002c335.249-258.608,166.616-740.22,67.256-886.396
					c-28.997-42.725-47.896-54.192-52.729-55.005c-8.42-0.74-18.289-0.83-30.171-0.288c-4.155,0.239-8.76,0.654-13.452,1.074
					l-0.547,0.049c-2.436,0.19-4.529,0.43-6.623,0.662l-3.85,0.418c-4.002,0.474-8.489,1.077-12.976,1.767
					c-25.413,3.633-54.905,9.788-87.939,18.333c-1.672,0.408-2.839,0.725-4.001,1.04c-1.336,0.361-2.661,0.718-4.009,1.055
					c-2.524,0.659-5.288,1.423-8.018,2.178l-5.066,1.389c-2.456,0.703-5.066,1.445-7.6,2.107
					c-14.653,4.233-26.965,7.925-37.624,11.284c-1.575,0.491-2.774,0.864-3.902,1.243c-0.229,0.076-0.459,0.149-0.688,0.22
					c-3.103,0.947-6.121,1.895-8.965,2.842c-0.115,0.039-0.381,0.125-0.496,0.161c-1.494,0.476-2.993,0.94-4.419,1.482
					c-0.603,0.229-1.216,0.439-1.836,0.625c-3.484,1.055-6.723,2.104-9.639,3.157l-3.032,1.028c-0.93,0.308-1.846,0.601-2.705,0.928
					c-0.415,0.159-0.835,0.308-1.26,0.447c-4.556,1.492-8.411,2.825-11.57,3.933c-1.409,0.566-2.737,1.042-3.979,1.443
					c-0.986,0.359-1.863,0.664-2.627,0.933l-0.3,0.105c-1.006,0.427-2.4,0.979-4.126,1.455c-5.447,1.611-11.367,1.55-16.936-0.374
					c-10.051-3.477-17.285-12.341-18.552-22.903c-3.987-33.184-11.455-62.378-22.202-86.775
					c-66.018-149.058-247.715-78.44-255.417-75.356c-6.16,2.458-13.049,2.659-19.331,0.515
					c-159.104-54.265-436.006-70.088-692.771,63.914c-216.248,112.805-314.426,342.896-291.816,683.882
					c17.207,259.502,101.753,488.22,102.605,490.5c1.25,3.345,1.846,6.904,1.75,10.469
					c-5.442,204.385,111.248,269.727,116.216,272.407c11.201,6.04,16.951,18.965,13.833,31.304
					C1532.039,2428.564,1525.547,2435.63,1517.249,2438.784z"/>
			</g>
			<g>
				<path style="fill:#4F98FF;" d="M2900.805,1954.3c0,0,0,202.477-142.919,273.89c0,0-752.293,448.578-1250.426,184.599
					c0,0-136.991-71.506-130.971-297.693C2138.601,2553.671,2900.805,1954.3,2900.805,1954.3z"/>
			</g>
			<g>
				<path style="fill:#102770;" d="M1875.042,2523.77c-144.382,0.005-272.251-29.014-380.591-86.431
					c-6.069-3.164-152.148-82.217-145.74-322.979c0.261-9.785,5.652-18.716,14.189-23.501s18.965-4.727,27.449,0.156
					c308.396,177.466,652.791,205.181,1023.621,82.344c278.372-92.207,467.788-239.434,469.668-240.911
					c8.372-6.56,19.754-7.783,29.317-3.135c9.563,4.651,15.639,14.351,15.639,24.985c0,8.953-1.787,219.724-157.365,298.284
					c-16.023,9.473-198.955,116.113-443.379,193.394c-147.747,46.709-286.997,72.651-413.884,77.104
					C1900.865,2523.54,1887.881,2523.77,1875.042,2523.77z M1405.213,2162.632c11.716,167.725,110.703,223.145,115.271,225.61
					c248.513,131.694,566.519,75.459,789.531,5.088c244.607-77.188,431.782-187.9,433.645-189.009
					c0.588-0.352,1.194-0.684,1.807-0.991c80.381-40.161,110.119-130.229,121.113-190.327
					c-75.708,51.221-230.149,144.966-433.374,212.529c-169.055,56.206-336.552,82.256-497.878,77.236
					C1749.185,2297.056,1571.092,2249.946,1405.213,2162.632z"/>
			</g>
			<g>
				<path style="fill:#102770;" d="M1838.909,3323.096c-12.788,0-23.157-10.366-23.157-23.154s10.369-23.154,23.157-23.154
					c1.809-0.005,183.262-1.719,183.262-115.742c0-115.61-198.379-127.612-200.383-127.72c-12.771-0.688-22.566-11.597-21.88-24.37
					c0.688-12.769,11.658-22.441,24.365-21.88c9.973,0.537,244.211,14.961,244.211,173.97
					C2068.484,3289.229,1918.313,3323.096,1838.909,3323.096z"/>
			</g>
			<g>
				<path style="fill:#102770;" d="M1669.475,2745.149c52.168,15.622,94.277,54.5,124.892,98.803
					c30.175,45.291,48.267,98.846,50.572,153.328c1.257,27.734-37.584,34.111-45.375,7.665
					c-8.871-35.729-15.119-72.363-28.168-106.865c-19.696-57.342-54.76-110.53-104.437-146.815
					C1663.657,2749.478,1665.7,2744.004,1669.475,2745.149L1669.475,2745.149z"/>
			</g>
			<g>
				<path style="fill:#102770;" d="M2519.034,2691.052c5.933,92.915,9.311,190.109,12.184,283.423c0,0-19.927-21.392-19.927-21.392
					c4.547,0.249,8.103,0.554,12.062,0.94c92.877,9.243,204.271,54.668,222.858,157.77c4.645,29.274,3.78,56.504-1.814,86.117
					c-6.148,34.491-28.825,69.432-60.1,87.35c-28.768,17.706-60.064,25.345-91.924,31.09c-45.249,7.405-89.177,9.469-134.253,10.276
					c-14.87,0.174-29.622,0.482-44.626-0.029c-214.587-8.079-245.612-272.833-242.143-440.053
					c1.19-58.853,5.977-117.1,15.635-175.242c2.189-11.207,18.831-9.602,18.393,2.083c-3.577,57.34-3.687,115.373-1.16,172.688
					c6.929,117.041,26.092,307.863,138.59,369.903c27.717,15.176,60.83,18.446,92.774,16.866
					c48.935-0.662,99.616-2.646,147.342-10.832c26.632-4.878,52.709-11.997,72.222-23.892
					c37.469-20.741,41.371-68.838,39.531-108.367c-8.404-88.925-109.396-122.9-188.487-134.163
					c-10.558-1.427-18.159-10.697-17.864-21.112l2.268-70.854c1.591-47.247,3.546-94.485,5.924-141.711
					c1.117-23.618,2.481-47.239,3.992-70.857C2501.333,2679.885,2518.089,2679.357,2519.034,2691.052L2519.034,2691.052z"/>
			</g>
			<g>
				<path style="fill:#102770;" d="M2974.071,1030.281c-6.762,97.626-34.364,239.249-135.787,266.017
					c-157.831,41.681-233.783-308.716-229.245-270.926c0,0,190.528-70.765,291.766-62.152
					C2919.793,964.796,2946.284,989.342,2974.071,1030.281z"/>
			</g>
			<g>
				<path style="fill:#102770;" d="M2812.547,1327.51c-44.021,0-98.962-23.677-151.872-110.981
					c-39.065-64.458-62.989-139.424-73.206-171.436c-0.403-1.26-0.82-2.571-1.226-3.831c-2.571-3.689-4.243-7.996-4.792-12.576
					c-2.646-22.017,12.337-31.304,21.606-33.32c1.365-0.298,4.593-0.835,8.638-0.479c44.915-15.818,199.465-67.134,291.468-59.355
					c28.24,2.346,59.851,28.975,93.901,79.143c3.491,5.149,5.159,11.318,4.727,17.524
					c-8.032,116.025-41.692,260.688-156.416,290.967C2835.386,1325.803,2824.358,1327.51,2812.547,1327.51z M2644.983,1042.239
					c54.49,164.009,120.383,244.561,186.206,227.195c83.85-22.131,107.759-150.3,114.429-231.399
					c-25.896-36.287-42.734-46.377-47.258-47.139C2825.911,984.758,2699.522,1023.84,2644.983,1042.239z"/>
			</g>
			<g>
				<path style="fill:#102770;" d="M3123.789,1348.34c-23.528,134.117-127.134,198.658-245.01,114.892
					c0,0.001,49.48-14.381,49.48-14.381c-1.396,3.001-2.664,5.185-4.065,7.852c-97.795,167.134-261.896,192.331-401.372,56.654
					c-3.72-3.889,0.743-10.142,5.658-7.33c31.881,19.321,65.062,35.964,99.332,45.495
					c108.519,32.223,191.452-31.072,236.626-125.582c0.532-0.979,1.809-3.999,2.121-4.75c3.209-15.422,18.314-25.325,33.736-22.114
					c5.574,0.879,11.097,4.886,15.745,7.732c28.906,16.836,59.977,32.515,89.971,16.649c30.244-18.694,44.773-56.878,54.953-89.979
					C3073.767,1295.326,3129.465,1308.603,3123.789,1348.34L3123.789,1348.34z"/>
			</g>
			<g>
				<path style="fill:#102770;" d="M2412.544,1102.148c-1.392,0-2.802-0.125-4.221-0.386c-12.578-2.317-20.896-14.392-18.579-26.968
					c5.813-31.541,35.53-90.728,105.852-89.08c12.785,0.303,22.905,10.916,22.6,23.699c-0.305,12.786-10.83,22.859-23.699,22.6
					c-0.562-0.012-1.123-0.02-1.672-0.02c-47.559,0-57.146,49.077-57.534,51.189
					C2433.235,1094.343,2423.499,1102.148,2412.544,1102.148z"/>
			</g>
			<g>
				<path style="fill:#102770;" d="M2631.807,1051.936c-87.475,37.031-181.884,54.694-276.249,62.067
					c-31.627,1.683-63.451,1.84-94.839-1.935c-3.634-0.422-3.983-6.024-0.145-6.604c91.628-14.687,179.453-42.891,267.49-70.923
					c29.322-9.116,58.964-18.439,88.291-26.23C2643.957,1001.594,2657.434,1039.854,2631.807,1051.936L2631.807,1051.936z"/>
			</g>
			<g>
				<path style="fill:#B04B27;" d="M1304.053,1253.847c241.532-130.891,566.613,170.498,584.476,730.212
					c17.863,559.715-184.587,738.347-512.079,702.62c-327.492-35.727-252.07-446.581-202.45-721.452
					C1222.487,1696.634,1037.049,1398.542,1304.053,1253.847z"/>
			</g>
			<g style="opacity:0.2;">
				<path style="fill:#102770;" d="M1863.449,1979.261c-9.652-302.428-109.014-529.375-236.41-653.525
					c81.083,130.21,137.928,313.414,145.109,538.407c17.863,559.714-184.586,738.348-512.079,702.621
					c-50.358-5.494-91.156-19.886-124.019-41.261c33.962,84.019,99.364,143.729,215.32,156.379
					C1678.862,2717.609,1881.312,2538.977,1863.449,1979.261z"/>
			</g>
			<g style="opacity:0.6;">
				<path style="fill:#FFFFFF;" d="M1252.806,2035.994c48.487-268.594-136.951-566.685,130.053-711.381
					c71.269-38.621,149.81-39.578,225.588-7.396c-103.681-89.726-222.962-113.43-326.813-57.15
					c-267.005,144.695-81.566,442.787-130.053,711.379c-45.93,254.431-113.917,625.325,135.944,707.423
					C1161.278,2539.082,1214.652,2247.353,1252.806,2035.994z"/>
			</g>
			<g>
				<path style="fill:#102770;" d="M1452.183,2718.755c-25.264,0-51.516-1.479-78.745-4.453
					c-87.661-9.561-155.173-45.273-200.659-106.143c-115.247-154.219-64.058-437.759-26.68-644.792l0.554-3.076
					c16.072-89.028,5.073-183.125-5.562-274.126c-20.298-173.662-41.287-353.235,149.722-456.748
					c89.507-48.503,192.261-44.529,289.312,11.187c91.345,52.439,170.967,145.684,230.256,269.653
					c63.669,133.123,100.295,296.655,105.92,472.917c9.917,310.752-45.698,517.778-170.027,632.915
					C1672.552,2684.36,1573.86,2718.755,1452.183,2718.755z M1304.053,1253.848l13.24,24.431
					c-157.92,85.579-140.813,231.951-121.003,401.433c11.108,95.032,22.593,193.298,5.056,290.452l-0.557,3.079
					c-35.564,196.997-84.272,466.787,16.509,601.65c36.392,48.701,89.436,76.23,162.166,84.165
					c143.62,15.659,251.277-11.724,329.053-83.745c110.261-102.109,161.482-300.737,152.239-590.366
					c-5.381-168.628-40.137-324.48-100.508-450.713c-53.63-112.134-127.424-199.297-207.791-245.432
					c-80.874-46.426-162.19-50.071-235.164-10.522L1304.053,1253.848z"/>
			</g>
			<g>
				<path style="fill:#B04B27;" d="M2609.039,1025.373c-129.859,40.106-315.571-184.6-315.571-184.6s213.221-86.141,291.21,89.938
					C2595.979,956.367,2604.5,987.583,2609.039,1025.373z"/>
			</g>
			<g>
				<path style="fill:#102770;" d="M2575.979,1057.998c-54.983,0-119.007-29.58-190.996-88.362
					c-64.033-52.285-110.967-108.784-112.932-111.162c-5.645-6.829-7.693-15.94-5.517-24.526c2.175-8.586,8.313-15.623,16.528-18.94
					c2.388-0.962,59.346-23.569,126.975-23.083c94.233,0.71,163.408,44.81,200.049,127.534
					c12.979,29.468,21.902,63.972,26.541,102.602c1.602,13.333-6.558,25.901-19.387,29.863
					C2604.117,1055.977,2590.357,1057.998,2575.979,1057.998z M2343.281,854.968c57.127,60.503,158.008,148.796,234.131,147.461
					c-4.27-22.502-10.349-42.778-18.164-60.518c-27.5-62.09-77.852-93.875-149.629-94.414
					C2384.734,847.3,2361.59,850.877,2343.281,854.968z"/>
			</g>
			<g>
				<path style="fill:#102770;" d="M2612.552,3168.228c26.826,46.317,27.949,124.715-29.021,149.283
					c-22.444,8.724-41.544-18.675-26.091-36.673c13.008-14.398,23.954-26.248,31.659-45.393c8.451-20.33,12.891-43.315,16.98-65.847
					C2606.362,3166.36,2611.013,3165.378,2612.552,3168.228L2612.552,3168.228z"/>
			</g>
			<g>
				<path style="fill:#102770;" d="M2491.4,3171.677c18.563,41.944,31.453,117.807-14.85,146.897
					c-14.512,8.527-33.252-4.809-30.157-21.173c0,0,2.656-16.091,2.656-16.091c1.572-5.244,5.087-11.013,7.395-17.283
					c7.393-17.791,13.592-38.935,18.892-58.655c3.048-10.806,5.934-21.934,9.512-33.245
					C2485.684,3169.127,2490.177,3168.841,2491.4,3171.677L2491.4,3171.677z"/>
			</g>
			<g>
				<path style="fill:#102770;" d="M2840.823,3159.272c19.812,48.145,6.233,110.592-36.969,142.38
					c-19.6,14.157-67.979,37.817-75.859,0.853c-2.575-20.748,16.577-25.925,31.194-33.311c16.405-8.363,31.079-17.631,43.341-32.066
					c16.21-19.116,26.656-46.816,31.761-76.807C2834.471,3156.869,2839.599,3156.034,2840.823,3159.272L2840.823,3159.272z"/>
			</g>
			<g>
				<path style="fill:#102770;" d="M1945.347,3148.416c22.289,46.078,27.006,110.978-13.4,149.544
					c-19.354,18.843-74.192,39.256-78.473-0.178c-0.128-20.703,18.282-22.927,32.476-29.79c15.136-7.699,25.105-17.039,33.741-33.97
					c12.393-24.856,16.448-55.507,19.199-84.16C1938.88,3146.427,1943.919,3145.303,1945.347,3148.416L1945.347,3148.416z"/>
			</g>
			<g>
				<path style="fill:#102770;" d="M1840.134,3148.34c24.12,47.955,32.508,120.224-16.137,157.122
					c-20.513,16.455-82.616,29.88-81.283-10.291c1.108-11.304,10.093-19.542,20.772-20.877c19.499-3.934,31.45-6.809,43.535-19.927
					c22.616-27.921,24.075-68.651,26.694-104.431C1833.577,3146.477,1838.659,3145.214,1840.134,3148.34L1840.134,3148.34z"/>
			</g>
			<g>
				<g>
					<path style="fill:#FFFFFF;" d="M2740.721,1082.197c-31.362,0-46.738-6.809-48.062-13.557
						c-0.935-4.756,4.783-13.408,23.638-23.43c17.932-9.531,42.737-17.715,69.846-23.04c19.653-3.86,39.036-5.901,56.05-5.901
						c31.367,0,46.743,6.807,48.066,13.555c0.935,4.756-4.783,13.411-23.638,23.433c-17.932,9.531-42.737,17.712-69.846,23.037
						C2777.122,1080.156,2757.737,1082.197,2740.721,1082.197z"/>
				</g>
				<g>
					<path style="fill:#102770;" d="M2842.2,1012v8.538c31.34,0,43.25,6.943,43.872,10.11c0.342,1.748-2.861,8.958-21.455,18.84
						c-17.571,9.341-41.955,17.373-68.665,22.62c-19.387,3.809-38.486,5.82-55.232,5.82c-31.341,0-43.252-6.941-43.875-10.11
						c-0.342-1.746,2.861-8.955,21.455-18.838c17.571-9.341,41.956-17.375,68.665-22.622c19.382-3.806,38.481-5.82,55.229-5.82
						L2842.2,1012z M2842.193,1012c-16.716,0.003-36.272,1.936-56.872,5.982c-56.88,11.174-100.242,34.224-96.851,51.482
						c2.161,11.008,22.815,17.002,52.251,17.002c16.721,0,36.272-1.934,56.877-5.981c56.88-11.172,100.242-34.221,96.851-51.482
						C2892.288,1017.993,2871.634,1012,2842.193,1012L2842.193,1012z"/>
				</g>
			</g>
			<g>
				<path style="fill:#102770;" d="M1993.927,1448.442c-9.776-50.995,5.29-105.19,41.581-143.247
					c64.261-66.727,171.173-48.116,237.465,5.102c8.994,6.848,2.497,21.429-8.523,19.403
					c-54.477-7.301-106.834-19.745-157.344,1.967c-45.68,20.624-70.881,73.533-92.028,118.123
					C2011.353,1460.047,1996.177,1459.151,1993.927,1448.442L1993.927,1448.442z"/>
			</g>
		</g>
	</g>
</g>
</svg>
